<svg id="Слой_1" xmlns="http://www.w3.org/2000/svg" width="480" height="480" viewBox="0 0 480 480">
    <style>
        .st0{fill:#e0e9f3}
    </style>
    <path class="st0" d="M240 0C107.5 0 0 107.5 0 240s107.5 240 240 240 240-107.5 240-240C479.9 107.5 372.5.1 240 0zm214.1 174c-27.1-6.4-54.9-8.9-82.8-7.5 2-29.6 12.3-58 29.7-82 24.5 25.3 42.7 56 53.1 89.5zM389.4 73.3c-20.2 27.4-32 60.1-33.8 94.1-25.7 2-51.2 5.8-76.3 11.4-9-57.7-30.3-112.8-62.5-161.5 7.7-.8 15.5-1.2 23.3-1.2 55.1-.1 108.3 20.3 149.3 57.2zM221.2 463.2c-35.6-3-69.9-14.4-100.2-33.5 62.1-81.2 90.8-152.9 85.4-213.5 19.5-6.5 39.4-12.4 59.4-17.4 8.3 71.7-.5 160.1-44.6 264.4zm-17.3-263.7c-.6-2.8-1.1-5.6-1.8-8.3C186 129.4 134.3 93.3 90.6 73.3c30.6-27.4 68.1-45.9 108.5-53.4 33.6 48.6 55.6 104.2 64.4 162.6-18.5 4.4-38.4 10-59.6 17zM78.3 85.2c41.5 18 93.2 51.5 108.4 109.9.8 3.1 1.4 6.3 2 9.5-58.1 20.7-114.7 45.6-169.2 74.5-12.6-70.3 9.3-142.4 58.8-193.9zM22.9 295.3c54.1-28.5 110.2-53.2 167.8-73.8 3.5 55.9-24.3 122.7-82.9 199.1-41.9-30.6-71.9-74.9-84.9-125.3zM240 464h-1.9c43.8-105.7 52.2-195.7 43.4-268.9 24.5-5.7 49.3-9.5 74.3-11.7 3 44 25.8 95.4 87.5 150.4C406.7 413.1 327.4 463.9 240 464zm209.9-145.9c-54.2-49.6-75.5-95.5-78.4-135.7 29.4-1.6 58.9 1.6 87.2 9.6 9.3 42 6.3 85.8-8.8 126.1z"/>
    <path class="st0" d="M51 213.6c4.4 0 8-3.6 8-8 .7-29.7 12.1-58.2 32-80.3 3.1-3.1 3.1-8.2 0-11.3s-8.2-3.1-11.3 0c-23 25-36.1 57.6-36.7 91.6 0 4.4 3.6 8 8 8z"/>
    <path class="st0" d="M111.1 385.5c3.7 0 7-2.5 7.9-6.2s-.9-7.4-4.3-9c-20.1-11.8-34.2-31.7-38.7-54.6-.9-4.3-5.1-7-9.4-6.2-4.3.9-7.1 5-6.3 9.3 5.4 27.8 22.6 51.8 47.2 65.7 1.1.7 2.4 1 3.6 1z"/>
    <path class="st0" d="M191 412.9l-25.8-8.6c-4.2-1.4-8.7.9-10.1 5.1s.9 8.7 5.1 10.1L186 428c4.2 1.4 8.7-.9 10.1-5.1 1.3-4.2-.9-8.7-5.1-10z"/>
</svg>
