<svg id="Слой_1" xmlns="http://www.w3.org/2000/svg" viewBox="0 0 512 512">
    <style>
        .st0{fill:#bc072a}
    </style>
    <path class="st0" d="M512 346.5c0-74.6-50.3-139.8-121.2-159.5C386.3 83.1 300.5 0 195.5 0 87.7 0 0 87.7 0 195.5c0 35.1 9.4 69.3 27.1 99.4L.7 390.3l95.4-26.4c27.6 16.3 58.7 25.5 90.9 26.9C206.7 461.7 271.9 512 346.5 512c29.8 0 58.8-7.9 84.2-23l80.6 22.3-22.3-80.6c15.1-25.4 23-54.4 23-84.2zm-411.1-15l-57.1 15.8 15.8-57.1-3.6-5.6c-17-26.6-25.9-57.3-25.9-89C30 104.2 104.2 30 195.5 30S361 104.2 361 195.5 286.8 361 195.5 361c-31.7 0-62.4-9-89-25.9l-5.6-3.6zm367.4 136.8l-42.4-11.7-5.7 3.7c-21.9 14.3-47.4 21.8-73.7 21.8-58.7 0-110.2-37.9-128.5-92.3 89.8-10.4 161.3-81.8 171.7-171.7 54.4 18.3 92.3 69.8 92.3 128.5 0 26.3-7.5 51.8-21.8 73.7l-3.7 5.7 11.8 42.3z"/>
    <path class="st0" d="M180.5 271h30v30h-30v-30z"/>
    <path class="st0" d="M225.5 150c0 8.5-3.5 16.4-9.8 22.1l-35.2 32.3V241h30v-23.4l25.5-23.3c12.4-11.3 19.5-27.5 19.5-44.3 0-33.1-26.9-60-60-60s-60 26.9-60 60h30c0-16.5 13.5-30 30-30s30 13.5 30 30z"/>
</svg>
