<svg id="Layer_1" xmlns="http://www.w3.org/2000/svg" width="512" height="512" viewBox="0 0 512 512">
    <style>
        .st0{fill:#bc072a}
    </style>
    <path class="st0" d="M281.6 119.5c-4.7 0-8.5 3.8-8.5 8.5v51.2c0 4.7 3.8 8.5 8.5 8.5h34.1c4.7 0 8.5-3.8 8.5-8.5V128c0-4.7-3.8-8.5-8.5-8.5h-34.1zm25.6 51.2h-17.1v-34.1h17.1v34.1z"/>
    <path class="st0" d="M59.7 221.9c4.7 0 8.5-3.8 8.5-8.5v-128h375.5v128c0 4.7 3.8 8.5 8.5 8.5s8.5-3.8 8.5-8.5V76.8c0-4.7-3.8-8.5-8.5-8.5H256V17.1h42.7v17.1h-25.6c-4.7 0-8.5 3.8-8.5 8.5s3.8 8.5 8.5 8.5h34.1c4.7 0 8.5-3.8 8.5-8.5V8.5c0-4.7-3.8-8.5-8.5-8.5h-59.7c-4.7 0-8.5 3.8-8.5 8.5v59.7H59.7c-4.7 0-8.5 3.8-8.5 8.5v136.5c0 4.8 3.8 8.7 8.5 8.7z"/>
    <path class="st0" d="M366.9 119.5c-4.7 0-8.5 3.8-8.5 8.5v51.2c0 4.7 3.8 8.5 8.5 8.5H401c4.7 0 8.5-3.8 8.5-8.5V128c0-4.7-3.8-8.5-8.5-8.5h-34.1zm25.6 51.2h-17.1v-34.1h17.1v34.1z"/>
    <path class="st0" d="M503.5 494.9H8.5c-4.7 0-8.5 3.8-8.5 8.5s3.8 8.5 8.5 8.5h494.9c4.7 0 8.5-3.8 8.5-8.5s-3.7-8.5-8.4-8.5z"/>
    <path class="st0" d="M315.7 443.7c4.7 0 8.5-3.8 8.5-8.5V315.7c0-2.3-.9-4.4-2.5-6-.8-.8-20.1-19.6-65.8-19.6s-65 18.8-65.8 19.6c-1.6 1.6-2.5 3.8-2.5 6v119.5c0 4.7 3.8 8.5 8.5 8.5s8.5-3.8 8.5-8.5V319.9c5.2-3.6 18.7-10.9 42.7-12.3v85c-4.7 0-8.5 3.8-8.5 8.5s3.8 8.5 8.5 8.5v25.6c0 4.7 3.8 8.5 8.5 8.5s8.5-3.8 8.5-8.5v-25.6c4.7 0 8.5-3.8 8.5-8.5s-3.8-8.5-8.5-8.5v-85c24 1.5 37.5 8.8 42.7 12.3v115.3c.2 4.7 4 8.5 8.7 8.5z"/>
    <path class="st0" d="M153.6 469.3c0 4.7 3.8 8.5 8.5 8.5h187.7c4.7 0 8.5-3.8 8.5-8.5s-3.8-8.5-8.5-8.5H162.1c-4.7 0-8.5 3.8-8.5 8.5z"/>
    <path class="st0" d="M42.7 460.8c-4.7 0-8.5 3.8-8.5 8.5s3.8 8.5 8.5 8.5H128c4.7 0 8.5-3.8 8.5-8.5s-3.8-8.5-8.5-8.5h-8.5V256h273.1v204.8H384c-4.7 0-8.5 3.8-8.5 8.5s3.8 8.5 8.5 8.5h85.3c4.7 0 8.5-3.8 8.5-8.5s-3.8-8.5-8.5-8.5h-8.5V256h8.5c4.7 0 8.5-3.8 8.5-8.5s-3.8-8.5-8.5-8.5H42.7c-4.7 0-8.5 3.8-8.5 8.5s3.8 8.5 8.5 8.5h8.5v204.8h-8.5zM409.6 256h34.1v204.8h-34.1V256zm-341.3 0h34.1v204.8H68.3V256z"/>
    <path class="st0" d="M110.9 119.5c-4.7 0-8.5 3.8-8.5 8.5v51.2c0 4.7 3.8 8.5 8.5 8.5H145c4.7 0 8.5-3.8 8.5-8.5V128c0-4.7-3.8-8.5-8.5-8.5h-34.1zm25.6 51.2h-17.1v-34.1h17.1v34.1z"/>
    <path class="st0" d="M196.3 119.5c-4.7 0-8.5 3.8-8.5 8.5v51.2c0 4.7 3.8 8.5 8.5 8.5h34.1c4.7 0 8.5-3.8 8.5-8.5V128c0-4.7-3.8-8.5-8.5-8.5h-34.1zm25.6 51.2h-17.1v-34.1h17.1v34.1z"/>
</svg>
