<svg id="Layer_1" xmlns="http://www.w3.org/2000/svg" width="512" height="512" viewBox="0 0 512 512">
    <style>
        .st0{fill:#bc072a}
    </style>
    <g id="XMLID_1992_">
        <g id="XMLID_605_">
            <path id="XMLID_606_" class="st0" d="M185.7 122.3c5.5 0 10-4.5 10-10V67.7c0-5.5-4.5-10-10-10s-10 4.5-10 10v44.7c0 5.5 4.4 9.9 10 9.9z"/>
            <path id="XMLID_639_" class="st0" d="M256.1 122.3c5.5 0 10-4.5 10-10V67.7c0-5.5-4.5-10-10-10s-10 4.5-10 10v44.7c0 5.5 4.5 9.9 10 9.9z"/>
            <path id="XMLID_640_" class="st0" d="M326.6 122.3c5.5 0 10-4.5 10-10V67.7c0-5.5-4.5-10-10-10s-10 4.5-10 10v44.7c0 5.5 4.5 9.9 10 9.9z"/>
            <path id="XMLID_641_" class="st0" d="M175.7 215.6c0 5.5 4.5 10 10 10s10-4.5 10-10v-44.7c0-5.5-4.5-10-10-10s-10 4.5-10 10v44.7z"/>
            <path id="XMLID_642_" class="st0" d="M246.1 215.6c0 5.5 4.5 10 10 10s10-4.5 10-10v-44.7c0-5.5-4.5-10-10-10s-10 4.5-10 10v44.7z"/>
            <path id="XMLID_758_" class="st0" d="M316.6 215.6c0 5.5 4.5 10 10 10s10-4.5 10-10v-44.7c0-5.5-4.5-10-10-10s-10 4.5-10 10v44.7z"/>
            <path id="XMLID_1086_" class="st0" d="M175.7 318.8c0 5.5 4.5 10 10 10s10-4.5 10-10v-44.7c0-5.5-4.5-10-10-10s-10 4.5-10 10v44.7z"/>
            <path id="XMLID_1087_" class="st0" d="M246.1 318.8c0 5.5 4.5 10 10 10s10-4.5 10-10v-44.7c0-5.5-4.5-10-10-10s-10 4.5-10 10v44.7z"/>
            <path id="XMLID_1377_" class="st0" d="M316.6 318.8c0 5.5 4.5 10 10 10s10-4.5 10-10v-44.7c0-5.5-4.5-10-10-10s-10 4.5-10 10v44.7z"/>
            <path id="XMLID_1693_" class="st0" d="M71 264.2c-5.5 0-10 4.5-10 10v44.7c0 5.5 4.5 10 10 10s10-4.5 10-10v-44.7c0-5.6-4.5-10-10-10z"/>
            <path id="XMLID_1708_" class="st0" d="M71 367.4c-5.5 0-10 4.5-10 10v44.7c0 5.5 4.5 10 10 10s10-4.5 10-10v-44.7c0-5.5-4.5-10-10-10z"/>
            <path id="XMLID_1712_" class="st0" d="M175.7 422.1c0 5.5 4.5 10 10 10s10-4.5 10-10v-44.7c0-5.5-4.5-10-10-10s-10 4.5-10 10v44.7z"/>
            <path id="XMLID_1713_" class="st0" d="M246.1 422.1c0 5.5 4.5 10 10 10s10-4.5 10-10v-44.7c0-5.5-4.5-10-10-10s-10 4.5-10 10v44.7z"/>
            <path id="XMLID_1717_" class="st0" d="M434 266.2c2.6 0 5.2-1.1 7.1-2.9 1.9-1.9 2.9-4.4 2.9-7.1 0-2.6-1.1-5.2-2.9-7.1-1.9-1.9-4.4-2.9-7.1-2.9-2.6 0-5.2 1.1-7.1 2.9-1.9 1.9-2.9 4.4-2.9 7.1 0 2.6 1.1 5.2 2.9 7.1s4.5 2.9 7.1 2.9z"/>
            <path id="XMLID_1755_" class="st0" d="M512 335.7V225.4c0-43-35-78-78-78-16.3 0-31.5 5-44 13.6V20h13.5c5.5 0 10-4.5 10-10s-4.5-10-10-10h-295c-5.5 0-10 4.5-10 10s4.5 10 10 10H122v52.3c0 5.5 4.5 10 10 10s10-4.5 10-10V20h228v159c0 .6.1 1.1.2 1.7-8.9 12.7-14.2 28.1-14.2 44.7v110.3c0 16.5 5.2 31.9 14 44.5v30.7c-5.8-1.9-11.9-2.9-18.1-2.9-5.3 0-10.4.7-15.3 2v-32.6c0-5.5-4.5-10-10-10s-10 4.5-10 10v42.4c-6.5 4.9-12 11.2-16 18.6-3.6-.9-7.3-1.4-11.1-1.4-24 0-43.5 19.5-43.5 43.5 0 3.9.5 7.8 1.6 11.5H142V152.3c0-5.5-4.5-10-10-10s-10 4.5-10 10V196H10c-5.5 0-10 4.5-10 10v296c0 5.5 4.5 10 10 10h492c5.5 0 10-4.5 10-10s-4.5-10-10-10h-58v-79c38.3-4.9 68-37.7 68-77.3zM20 216h102v276H20V216zm414-48.6c32 0 58 26 58 58v110.3c0 28.6-20.8 52.4-48 57.1v-96.6c0-5.5-4.5-10-10-10s-10 4.5-10 10v96.6c-27.2-4.8-48-28.5-48-57.1V225.4c0-32 26-58 58-58zM390 400c9.9 6.8 21.5 11.4 34 13v32.4c-6.1-4.5-13.5-7.5-21.5-8.2-3.3-5.8-7.6-10.8-12.5-15.1V400zm-10 92H269c-2-3.5-3-7.5-3-11.5 0-13 10.5-23.5 23.5-23.5 4 0 8 1 11.5 3 2.6 1.5 5.7 1.7 8.5.6s4.9-3.3 5.9-6.2a38.37 38.37 0 0 1 36.5-26.4c15.3 0 29.1 9.1 35.3 23.1 1.7 3.8 5.6 6.2 9.8 6h1.4c13 0 23.5 10.5 23.5 23.5 0 4-1.1 8-3 11.5H380v-.1z"/>
            <path id="XMLID_1787_" class="st0" d="M130.9 122.3c2.6 0 5.2-1.1 7.1-2.9 1.9-1.9 2.9-4.4 2.9-7.1s-1.1-5.2-2.9-7.1c-1.9-1.9-4.4-2.9-7.1-2.9s-5.2 1.1-7.1 2.9-2.9 4.4-2.9 7.1 1.1 5.2 2.9 7.1c1.9 1.9 4.4 2.9 7.1 2.9z"/>
        </g>
    </g>
</svg>
