<svg id="Слой_1" xmlns="http://www.w3.org/2000/svg" width="512" height="512" viewBox="0 0 512 512">
    <style>
        .st0{fill:#bc072a}
    </style>
    <path class="st0" d="M425.5 351.7c-3.7 0-7.5.3-11.2.7v-32.5c0-4.1-3.4-7.5-7.5-7.5s-7.5 3.4-7.5 7.5v69.8h-1.6c-5.7 0-11.2.8-16.4 2.3v-71.3c0-9.8-8-17.8-17.8-17.8H345c-9.8 0-17.8 8-17.8 17.8v79.8h-23v-79.8c0-9.8-8-17.8-17.8-17.8h-79.9c-9.8 0-17.8 8-17.8 17.8v79.8h-23v-79.8c0-9.8-8-17.8-17.8-17.8h-18.5c-9.8 0-17.8 8-17.8 17.8v79.8H94V246.9l152.7-137.1 152.7 137.1v40.4c0 4.1 3.4 7.5 7.5 7.5s7.5-3.4 7.5-7.5v-26.9l2.8 2.5c7.3 6.5 18.6 5.9 25.1-1.4l17.2-19.1c6.5-7.3 5.9-18.6-1.4-25.1l-82-73.6c-3.1-2.8-7.8-2.5-10.6.6s-2.5 7.8.6 10.6l82 73.6c1.1 1 1.2 2.8.2 3.9l-17.3 19c-1 1.1-2.8 1.2-3.9.2L251.7 94.1c-2.9-2.6-7.2-2.6-10 0L66.2 251.6c-.7.7-1.6.7-2 .7s-1.2-.2-1.9-.9l-17.2-19.1c-1-1.1-.9-2.9.2-3.9L236.2 57c5.9-5.3 14.9-5.3 20.9 0l84.6 75.9c3.1 2.8 7.8 2.5 10.6-.6s2.5-7.8-.6-10.6l-84.6-75.9c-11.7-10.5-29.2-10.5-40.9 0L35.3 217.2c-7.3 6.5-7.9 17.8-1.4 25.1l17.2 19.1c3.2 3.5 7.5 5.6 12.3 5.9h1c4.4 0 8.6-1.6 11.9-4.5l2.8-2.5V352c-16.2 1.4-31.5 7.2-44.6 17.1-3.3 2.5-4 7.2-1.5 10.5 1.5 2 3.7 3 6 3 1.6 0 3.2-.5 4.5-1.5 10.5-7.9 22.6-12.7 35.5-14v92.6H18.3c-2.2-6.9-3.3-14.2-3.3-21.5 0-12.2 3.1-24.2 9-34.8 2-3.6.7-8.2-2.9-10.2-3.6-2-8.2-.7-10.2 2.9C3.8 408.9 0 423.4 0 438.1c0 11 2 21.7 6 31.8 1.1 2.9 3.9 4.7 7 4.7h486c3.1 0 5.8-1.9 7-4.7 4-10.1 6-20.8 6-31.8 0-47.6-38.8-86.4-86.5-86.4zm-83.1-31.1c0-1.5 1.2-2.8 2.8-2.8h18.5c1.5 0 2.8 1.2 2.8 2.8v78.1c-.9.6-1.7 1.1-2.6 1.7h-21.4v-79.8zm6.7 94.9c-6.4 9.4-10.1 20.7-10.1 32.9 0 3.8.4 7.6 1.1 11.3h-35.8v-44.2h44.8zm-142.4-97.6h79.9c1.5 0 2.8 1.2 2.8 2.8v139.1H204V320.6c0-1.5 1.2-2.7 2.7-2.7zm-79.8 2.7c0-1.5 1.2-2.8 2.8-2.8h18.5c1.5 0 2.8 1.2 2.8 2.8v79.8h-24v-79.8zM94 459.7v-44.2h95v44.2H94zm312.8 0h-51.3c-1-3.7-1.5-7.5-1.5-11.3 0-24.1 19.6-43.7 43.7-43.7s43.7 19.6 43.7 43.7c0 3.9-.5 7.7-1.5 11.3h-33.1zm86.9 0h-38.3c.7-3.7 1.1-7.5 1.1-11.3 0-26.6-17.8-49.2-42.2-56.4v-24.4c3.7-.6 7.4-.9 11.2-.9 39.4 0 71.5 32.1 71.5 71.5 0 7.3-1.1 14.6-3.3 21.5z"/>
    <path class="st0" d="M272.3 404.8c4.1 0 7.5-3.4 7.5-7.5v-8.5c0-4.1-3.4-7.5-7.5-7.5s-7.5 3.4-7.5 7.5v8.5c0 4.1 3.4 7.5 7.5 7.5z"/>
    <path class="st0" d="M198.1 228.8c0 26.8 21.8 48.5 48.5 48.5 26.8 0 48.5-21.8 48.5-48.5 0-26.8-21.8-48.5-48.5-48.5s-48.5 21.8-48.5 48.5zm82.1 0c0 18.5-15 33.5-33.5 33.5s-33.5-15-33.5-33.5 15-33.5 33.5-33.5 33.5 15.1 33.5 33.5z"/>
</svg>
