<svg id="Слой_1" xmlns="http://www.w3.org/2000/svg" width="640" height="640" viewBox="0 0 640 640">
    <style>
        .st0{fill:#bc072a}
    </style>
    <g id="surface1">
        <path class="st0" d="M629.3 373.3h-32.7L576 73.9c-.4-5.6-5-9.9-10.7-9.9h-64c-5.6 0-10.3 4.3-10.7 9.9L470 373.3h-22v-64c0-5.9-4.8-10.7-10.7-10.7-2.4 0-4.8.8-6.7 2.3l-89.3 71.5v-63.1c0-5.9-4.8-10.7-10.7-10.7-2.4 0-4.8.8-6.7 2.3l-89.3 71.5v-63.1c0-5.9-4.8-10.7-10.7-10.7-2.4 0-4.8.8-6.7 2.3L128 372.5v-63.1c0-5.9-4.8-10.7-10.7-10.7-1.9 0-3.8.5-5.5 1.5l-106.7 64C2 366.1 0 369.6 0 373.3v256c0 5.9 4.8 10.7 10.7 10.7h618.7c5.9 0 10.7-4.8 10.7-10.7V384c-.1-5.9-4.9-10.7-10.8-10.7zm-118-288h44.1l19.9 288h-83.8l19.8-288zM362.7 618.7v-128h64v128h-64zm256 0H448V480c0-5.9-4.8-10.7-10.7-10.7H352c-5.9 0-10.7 4.8-10.7 10.7v138.7h-320V379.4l85.3-51.2v66.5c0 5.9 4.8 10.7 10.7 10.7 2.4 0 4.8-.8 6.7-2.3l89.3-71.5v63.1c0 5.9 4.8 10.7 10.7 10.7 2.4 0 4.8-.8 6.7-2.3l89.3-71.5v63.1c0 5.9 4.8 10.7 10.7 10.7 2.4 0 4.8-.8 6.7-2.3l89.3-71.5V384c0 5.9 4.8 10.7 10.7 10.7h181.3v224z"/>
        <path class="st0" d="M362.6 21.3c3.9 2.1 7.4 4.8 10.4 8 6 7.3 14.5 12 23.8 13.3 9.8-1.3 18.8-6.2 25.1-13.9 2.7-2.8 5.7-5.3 9-7.5 2.2.1 7.9 5.5 11 8.4 5.8 7.1 14 11.8 23.1 13 10.5-1.3 20.1-6.6 26.8-14.7 2.6-2.5 6.6-6.2 7.3-6.6 5.7 0 7 1.9 10.6 7 4.6 8.7 13.7 14.3 23.6 14.4 5.9 0 10.7-4.8 10.7-10.7 0-5.9-4.8-10.7-10.7-10.7-2.1 0-2.6-.1-6-5.2C521.7 6 510.8-.2 499.2 0c-8.6 1.2-16.5 5.6-21.9 12.4-3.5 3.3-9.5 8.9-11.7 9-3.3-2-6.3-4.4-9-7.2C450.1 6.3 441 1.3 430.9 0c-9.2 1.3-17.7 6-23.6 13.2-3 3.2-6.4 6-10.3 8.2-3.6-2-6.8-4.6-9.6-7.6-6.1-7.6-15-12.5-24.7-13.8-5.9 0-10.7 4.7-10.7 10.6-.1 5.9 4.7 10.7 10.6 10.7z"/>
        <path class="st0" d="M117.3 490.7H74.7c-5.9 0-10.7 4.8-10.7 10.7v64c0 5.9 4.8 10.7 10.7 10.7h42.7c5.9 0 10.7-4.8 10.7-10.7v-64c-.1-6-4.9-10.7-10.8-10.7zm-10.6 64H85.3V512h21.3v42.7z"/>
        <path class="st0" d="M202.7 490.7H160c-5.9 0-10.7 4.8-10.7 10.7v64c0 5.9 4.8 10.7 10.7 10.7h42.7c5.9 0 10.7-4.8 10.7-10.7v-64c-.1-6-4.8-10.7-10.7-10.7zm-10.7 64h-21.3V512H192v42.7z"/>
        <path class="st0" d="M288 490.7h-42.7c-5.9 0-10.7 4.8-10.7 10.7v64c0 5.9 4.8 10.7 10.7 10.7H288c5.9 0 10.7-4.8 10.7-10.7v-64c0-6-4.8-10.7-10.7-10.7zm-10.7 64H256V512h21.3v42.7z"/>
    </g>
</svg>
