<svg id="Layer_1" xmlns="http://www.w3.org/2000/svg" width="512" height="512" viewBox="0 0 512 512">
    <style>
        .st0{fill:#bc072a}
    </style>
    <path class="st0" d="M480.4 494.7H466V43.1c0-4.8-3.9-8.6-8.6-8.6H296.3c-4.8 0-8.6 3.9-8.6 8.6v37.4h-17.3V43.1c0-4.8-3.9-8.6-8.6-8.6h-37.4V8.6c0-4.8-3.9-8.6-8.6-8.6s-8.6 3.9-8.6 8.6v25.9h-37.4c-4.8 0-8.6 3.9-8.6 8.6v37.4h-25.9c-4.8 0-8.6 3.9-8.6 8.6V161h-72c-4.8 0-8.6 3.9-8.6 8.6v325H31.6c-4.8 0-8.6 3.9-8.6 8.6s3.9 8.6 8.6 8.6h448.7c4.8 0 8.6-3.9 8.6-8.6s-3.8-8.5-8.5-8.5zM178.3 51.8h74.8v28.8h-74.8V51.8zm-28.7 442.9h-5.8v-14.4c0-4.8-3.9-8.6-8.6-8.6s-8.6 3.9-8.6 8.6v14.4h-5.8V466h28.8v28.7zm57.5-221.4v221.4h-40.3v-37.4c0-4.8-3.9-8.6-8.6-8.6h-46c-4.8 0-8.6 3.9-8.6 8.6v37.4H63.3V178.3h143.8v95zm8.6-112.2h-71.9V97.8h143.8v166.8h-63.3v-28.8h25.9c4.8 0 8.6-3.9 8.6-8.6s-3.9-8.6-8.6-8.6h-25.9v-28.8h25.9c4.8 0 8.6-3.9 8.6-8.6s-3.9-8.6-8.6-8.6h-25.9v-2.9c.1-4.8-3.8-8.6-8.6-8.6zm152.5 333.6H224.4V281.9h143.8v212.8zm80.5 0h-63.3V261.8c0-4.8-3.9-8.6-8.6-8.6s-8.6 3.9-8.6 8.6v2.9h-17.3v-2.9c0-4.8-3.9-8.6-8.6-8.6s-8.6 3.9-8.6 8.6v2.9h-28.8V51.8h143.8v442.9z"/>
    <path class="st0" d="M261.8 477.5c4.8 0 8.6-3.9 8.6-8.6V307.8c0-4.8-3.9-8.6-8.6-8.6s-8.6 3.9-8.6 8.6v161.1c-.1 4.7 3.8 8.6 8.6 8.6z"/>
    <path class="st0" d="M296.3 477.5c4.8 0 8.6-3.9 8.6-8.6V307.8c0-4.8-3.9-8.6-8.6-8.6s-8.6 3.9-8.6 8.6v161.1c-.1 4.7 3.8 8.6 8.6 8.6z"/>
    <path class="st0" d="M330.8 477.5c4.8 0 8.6-3.9 8.6-8.6V307.8c0-4.8-3.9-8.6-8.6-8.6s-8.6 3.9-8.6 8.6v161.1c0 4.7 3.8 8.6 8.6 8.6z"/>
    <path class="st0" d="M342.3 109.3c4.8 0 8.6-3.9 8.6-8.6V89.2c0-4.8-3.9-8.6-8.6-8.6s-8.6 3.9-8.6 8.6v11.5c0 4.7 3.8 8.6 8.6 8.6z"/>
    <path class="st0" d="M376.8 109.3c4.8 0 8.6-3.9 8.6-8.6V89.2c0-4.8-3.9-8.6-8.6-8.6s-8.6 3.9-8.6 8.6v11.5c0 4.7 3.8 8.6 8.6 8.6z"/>
    <path class="st0" d="M411.3 109.3c4.8 0 8.6-3.9 8.6-8.6V89.2c0-4.8-3.9-8.6-8.6-8.6s-8.6 3.9-8.6 8.6v11.5c0 4.7 3.9 8.6 8.6 8.6z"/>
    <path class="st0" d="M342.3 166.8c4.8 0 8.6-3.9 8.6-8.6v-11.5c0-4.8-3.9-8.6-8.6-8.6s-8.6 3.9-8.6 8.6v11.5c0 4.8 3.8 8.6 8.6 8.6z"/>
    <path class="st0" d="M376.8 166.8c4.8 0 8.6-3.9 8.6-8.6v-11.5c0-4.8-3.9-8.6-8.6-8.6s-8.6 3.9-8.6 8.6v11.5c0 4.8 3.8 8.6 8.6 8.6z"/>
    <path class="st0" d="M411.3 166.8c4.8 0 8.6-3.9 8.6-8.6v-11.5c0-4.8-3.9-8.6-8.6-8.6s-8.6 3.9-8.6 8.6v11.5c0 4.8 3.9 8.6 8.6 8.6z"/>
    <path class="st0" d="M342.3 224.4c4.8 0 8.6-3.9 8.6-8.6v-11.5c0-4.8-3.9-8.6-8.6-8.6s-8.6 3.9-8.6 8.6v11.5c0 4.7 3.8 8.6 8.6 8.6z"/>
    <path class="st0" d="M376.8 224.4c4.8 0 8.6-3.9 8.6-8.6v-11.5c0-4.8-3.9-8.6-8.6-8.6s-8.6 3.9-8.6 8.6v11.5c0 4.7 3.8 8.6 8.6 8.6z"/>
    <path class="st0" d="M411.3 224.4c4.8 0 8.6-3.9 8.6-8.6v-11.5c0-4.8-3.9-8.6-8.6-8.6s-8.6 3.9-8.6 8.6v11.5c0 4.7 3.9 8.6 8.6 8.6z"/>
    <path class="st0" d="M100.7 247.4c4.8 0 8.6-3.9 8.6-8.6v-11.5c0-4.8-3.9-8.6-8.6-8.6s-8.6 3.9-8.6 8.6v11.5c-.1 4.7 3.8 8.6 8.6 8.6z"/>
    <path class="st0" d="M135.2 247.4c4.8 0 8.6-3.9 8.6-8.6v-11.5c0-4.8-3.9-8.6-8.6-8.6s-8.6 3.9-8.6 8.6v11.5c0 4.7 3.8 8.6 8.6 8.6z"/>
    <path class="st0" d="M169.7 247.4c4.8 0 8.6-3.9 8.6-8.6v-11.5c0-4.8-3.9-8.6-8.6-8.6s-8.6 3.9-8.6 8.6v11.5c0 4.7 3.8 8.6 8.6 8.6z"/>
    <path class="st0" d="M100.7 304.9c4.8 0 8.6-3.9 8.6-8.6v-11.5c0-4.8-3.9-8.6-8.6-8.6S92 280 92 284.8v11.5c0 4.7 3.9 8.6 8.7 8.6z"/>
    <path class="st0" d="M135.2 304.9c4.8 0 8.6-3.9 8.6-8.6v-11.5c0-4.8-3.9-8.6-8.6-8.6s-8.6 3.9-8.6 8.6v11.5c0 4.7 3.8 8.6 8.6 8.6z"/>
    <path class="st0" d="M169.7 304.9c4.8 0 8.6-3.9 8.6-8.6v-11.5c0-4.8-3.9-8.6-8.6-8.6s-8.6 3.9-8.6 8.6v11.5c0 4.7 3.8 8.6 8.6 8.6z"/>
    <path class="st0" d="M100.7 362.4c4.8 0 8.6-3.9 8.6-8.6v-11.5c0-4.8-3.9-8.6-8.6-8.6s-8.6 3.9-8.6 8.6v11.5c-.1 4.8 3.8 8.6 8.6 8.6z"/>
    <path class="st0" d="M135.2 362.4c4.8 0 8.6-3.9 8.6-8.6v-11.5c0-4.8-3.9-8.6-8.6-8.6s-8.6 3.9-8.6 8.6v11.5c0 4.8 3.8 8.6 8.6 8.6z"/>
    <path class="st0" d="M169.7 362.4c4.8 0 8.6-3.9 8.6-8.6v-11.5c0-4.8-3.9-8.6-8.6-8.6s-8.6 3.9-8.6 8.6v11.5c0 4.8 3.8 8.6 8.6 8.6z"/>
    <path class="st0" d="M100.7 420c4.8 0 8.6-3.9 8.6-8.6v-11.5c0-4.8-3.9-8.6-8.6-8.6s-8.6 3.9-8.6 8.6v11.5c-.1 4.7 3.8 8.6 8.6 8.6z"/>
    <path class="st0" d="M135.2 420c4.8 0 8.6-3.9 8.6-8.6v-11.5c0-4.8-3.9-8.6-8.6-8.6s-8.6 3.9-8.6 8.6v11.5c0 4.7 3.8 8.6 8.6 8.6z"/>
    <path class="st0" d="M169.7 420c4.8 0 8.6-3.9 8.6-8.6v-11.5c0-4.8-3.9-8.6-8.6-8.6s-8.6 3.9-8.6 8.6v11.5c0 4.7 3.8 8.6 8.6 8.6z"/>
    <path class="st0" d="M411.3 281.9c4.8 0 8.6-3.9 8.6-8.6v-11.5c0-4.8-3.9-8.6-8.6-8.6s-8.6 3.9-8.6 8.6v11.5c0 4.7 3.9 8.6 8.6 8.6z"/>
    <path class="st0" d="M411.3 339.4c4.8 0 8.6-3.9 8.6-8.6v-11.5c0-4.8-3.9-8.6-8.6-8.6s-8.6 3.9-8.6 8.6v11.5c0 4.8 3.9 8.6 8.6 8.6z"/>
    <path class="st0" d="M411.3 396.9c4.8 0 8.6-3.9 8.6-8.6v-11.5c0-4.8-3.9-8.6-8.6-8.6s-8.6 3.9-8.6 8.6v11.5c0 4.8 3.9 8.6 8.6 8.6z"/>
    <path class="st0" d="M411.3 454.5c4.8 0 8.6-3.9 8.6-8.6v-11.5c0-4.8-3.9-8.6-8.6-8.6s-8.6 3.9-8.6 8.6v11.5c0 4.7 3.9 8.6 8.6 8.6z"/>
    <path class="st0" d="M258.9 135.2c0-4.8-3.9-8.6-8.6-8.6h-69c-4.8 0-8.6 3.9-8.6 8.6s3.9 8.6 8.6 8.6h69c4.7 0 8.6-3.8 8.6-8.6z"/>
</svg>
