<svg id="Слой_1" xmlns="http://www.w3.org/2000/svg" viewBox="0 0 62 62">
    <style>
        .st0{fill:#bc072a}
    </style>
    <path class="st0" d="M46.9 7.1h-6.2V3.2h-9.1v7.6h-14V3.2H8.5V7H2.2v16.9h6.2v3.8h9.1v-7.6h13.9v7.6h9.1v-3.8h6.2V7.1h.2zM8.5 21.2H5V9.9h3.5v11.3zm6.3 3.8h-3.6V6h3.6v19zm16.7-7.6H17.6v-3.8h13.9v3.8zm6.4 7.6h-3.6V6h3.6v19zm6.2-3.8h-3.5V9.9h3.5v11.3z"/>
    <path class="st0" d="M57.7 38.1h-6.2v-3.8h-9.1v7.6H28.5v-7.6h-9.1v3.8h-6.2V55h6.2v3.8h9.1v-7.6h13.9v7.6h9.1V55h6.2V38.1zm-38.4 14h-3.5V40.8h3.5v11.3zm6.4 3.9h-3.6V37h3.6v19zm16.7-7.6H28.5v-3.8h13.9v3.8zm6.3 7.6h-3.6V37h3.6v19zm6.3-3.9h-3.5V40.8H55v11.3z"/>
</svg>
