<svg id="Layer_3" xmlns="http://www.w3.org/2000/svg" width="512" height="512" viewBox="0 0 512 512">
    <style>
        .st0{fill:#bc072a}
    </style>
    <path class="st0" d="M496 216h-24v-56c0-4.4-3.6-8-8-8h-96c-4.4 0-8 3.6-8 8v56h-24c-4.4 0-8 3.6-8 8v104h-72c-4.4 0-8 3.6-8 8v40h-26.9l-8.6-69.1c12.2-3.4 23.7-8.2 34.4-14.8l19.7 19.7c1.5 1.5 3.5 2.3 5.7 2.3s4.2-.8 5.7-2.3l33.9-33.9c1.5-1.5 2.3-3.5 2.3-5.7s-.8-4.2-2.3-5.7l-19.7-19.7c7.4-12 12.7-25 16-38.8H336c4.4 0 8-3.6 8-8v-48c0-4.4-3.6-8-8-8h-27.9c-3.3-13.8-8.7-26.8-16-38.8l19.7-19.7c1.5-1.5 2.3-3.5 2.3-5.7s-.8-4.2-2.3-5.7l-33.9-33.9c-3-3-8.3-3-11.3 0l-19.7 19.7c-12-7.3-25-12.7-38.8-16V16c0-4.4-3.6-8-8-8h-48c-4.4 0-8 3.6-8 8v27.9c-13.8 3.3-26.8 8.7-38.8 16L85.5 40.2c-1.5-1.5-3.5-2.3-5.7-2.3s-4.2.8-5.7 2.3l-33.9 34c-1.5 1.5-2.3 3.5-2.3 5.7s.8 4.2 2.3 5.7l19.7 19.7c-7.4 12-12.7 25-16 38.8H16c-4.4 0-8 3.6-8 8v48c0 4.4 3.6 8 8 8h27.9c2.1 8.7 5.2 17.2 8.9 25.3L24.9 456H16c-4.4 0-8 3.6-8 8v32c0 4.4 3.6 8 8 8h480c4.4 0 8-3.6 8-8V224c0-4.4-3.6-8-8-8zm-40 0h-16v-48h16v48zm-48 0v-48h16v48h-16zm-32-48h16v48h-16v-48zm112 64v144H344V232h144zM200 424h288v32H200v-32zm288-16H200v-16h288v16zm-224-64h64v32h-64v-32zm-72 32c-4.4 0-8 3.6-8 8v40H45.1l22-176H189l16 128h-13zM88 176c0-48.5 39.5-88 88-88s88 39.5 88 88c0 37.3-23.3 70-57.6 82.6L200 207c-.5-4-3.9-7-7.9-7H91.4c-2.2-7.8-3.4-15.8-3.4-24zm96.9 40l2 16H69.1l2-16h113.8zM24 192v-32h26.3c3.8 0 7.1-2.7 7.9-6.5 3.1-16.2 9.3-31.4 18.6-44.9 2.2-3.2 1.8-7.4-1-10.2L57.2 79.8l22.6-22.6 18.6 18.6c2.7 2.7 7 3.1 10.2 1 13.6-9.2 28.7-15.5 44.9-18.6 3.8-.7 6.5-4 6.5-7.9V24h32v26.3c0 3.8 2.7 7.1 6.5 7.9 16.2 3.1 31.4 9.3 44.9 18.6 3.2 2.2 7.4 1.8 10.2-1l18.6-18.6 22.6 22.6-18.6 18.6c-2.7 2.7-3.1 7-1 10.2 9.2 13.6 15.5 28.7 18.6 44.9.7 3.8 4 6.5 7.9 6.5H328v32h-26.3c-3.8 0-7.1 2.7-7.9 6.5-3.1 16.2-9.3 31.4-18.6 44.9-2.2 3.2-1.8 7.4 1 10.2l18.6 18.6-22.6 22.6-18.6-18.6c-2.7-2.7-7-3.1-10.2-1-10.2 6.9-21.2 12.1-33 15.6l-2-16c42.5-13.9 71.6-53.5 71.6-98.8 0-57.3-46.7-104-104-104S72 118.7 72 176c0 8.1 1 16.2 2.9 24H64c-1.9 0-3.7.7-5.1 1.9-.2-1.1-.5-2.2-.8-3.4-.7-3.8-4-6.5-7.9-6.5H24zm19.1 248H184v16H41.1l2-16zM488 488H24v-16h464v16z"/>
    <path class="st0" d="M368 296h32c4.4 0 8-3.6 8-8v-32c0-4.4-3.6-8-8-8h-32c-4.4 0-8 3.6-8 8v32c0 4.4 3.6 8 8 8zm8-32h16v16h-16v-16z"/>
    <path class="st0" d="M432 296h32c4.4 0 8-3.6 8-8v-32c0-4.4-3.6-8-8-8h-32c-4.4 0-8 3.6-8 8v32c0 4.4 3.6 8 8 8zm8-32h16v16h-16v-16z"/>
    <path class="st0" d="M368 360h32c4.4 0 8-3.6 8-8v-32c0-4.4-3.6-8-8-8h-32c-4.4 0-8 3.6-8 8v32c0 4.4 3.6 8 8 8zm8-32h16v16h-16v-16z"/>
    <path class="st0" d="M432 360h32c4.4 0 8-3.6 8-8v-32c0-4.4-3.6-8-8-8h-32c-4.4 0-8 3.6-8 8v32c0 4.4 3.6 8 8 8zm8-32h16v16h-16v-16z"/>
    <path class="st0" d="M464 24c-13.1 0-25 6.3-32.4 16.8-2.5-.5-5-.8-7.6-.8-19.6 0-36 14.2-39.4 32.9-14.1 3.3-24.6 16-24.6 31.1 0 17.6 14.4 32 32 32 11.6 0 22.2-6.4 27.7-16.3 14.8 1.9 28.5-4.9 36.7-16.5 2.5.5 5 .8 7.6.8 22.1 0 40-17.9 40-40s-17.9-40-40-40zm-8.4 62.4c-3.9-1.5-8.2.3-10 4-4.1 8.4-12.3 13.6-21.5 13.6-2 0-4.2-.4-6.8-1.1-2-.6-4.3-.4-6.1.7s-3.2 2.8-3.8 4.8c-2 6.8-8.2 11.6-15.3 11.6-8.8 0-16-7.2-16-16s7.2-16 16-16c4.4 0 8-3.6 8-8 0-13.2 10.8-24 24-24 2.7 0 5.6.5 8.4 1.6 3.9 1.5 8.2-.3 10-4 4-8.4 12.3-13.6 21.5-13.6 13.2 0 24 10.8 24 24 0 16-15.8 28.7-32.4 22.4z"/>
</svg>
