<svg id="Слой_1" xmlns="http://www.w3.org/2000/svg" width="638" height="638" viewBox="0 0 638 638">
    <style>
        .st0{fill:#bc072a}
    </style>
    <g id="surface1">
        <path class="st0" d="M435 105.2V.4L224.6 105.6V0L3.7 116.3V638h631.1V0L435 105.2zM203.6 617H24.8V128.9l178.8-94.1V617zm210.4 0H224.6V129.1L414 34.4V617zm199.8 0H435V128.9l178.8-94.1V617z"/>
        <path class="st0" d="M108.9 301.4H45.8v-63.1h63.1v63.1zm-42-21h21v-21h-21v21z"/>
        <path class="st0" d="M182.6 301.4h-63.1v-63.1h63.1v63.1zm-42.1-21h21v-21h-21v21z"/>
        <path class="st0" d="M108.9 385.6H45.8v-63.1h63.1v63.1zm-42-21.1h21v-21h-21v21z"/>
        <path class="st0" d="M182.6 385.6h-63.1v-63.1h63.1v63.1zm-42.1-21.1h21v-21h-21v21z"/>
        <path class="st0" d="M108.9 469.7H45.8v-63.1h63.1v63.1zm-42-21h21v-21h-21v21z"/>
        <path class="st0" d="M182.6 469.7h-63.1v-63.1h63.1v63.1zm-42.1-21h21v-21h-21v21z"/>
        <path class="st0" d="M108.9 553.9H45.8v-63.1h63.1v63.1zm-42-21.1h21v-21h-21v21z"/>
        <path class="st0" d="M182.6 553.9h-63.1v-63.1h63.1v63.1zm-42.1-21.1h21v-21h-21v21z"/>
        <path class="st0" d="M308.8 301.4h-63.1v-63.1h63.1v63.1zm-42.1-21h21v-21h-21v21z"/>
        <path class="st0" d="M392.9 301.4h-63.1v-63.1h63.1v63.1zm-42-21h21v-21h-21v21z"/>
        <path class="st0" d="M308.8 385.6h-63.1v-63.1h63.1v63.1zm-42.1-21.1h21v-21h-21v21z"/>
        <path class="st0" d="M392.9 385.6h-63.1v-63.1h63.1v63.1zm-42-21.1h21v-21h-21v21z"/>
        <path class="st0" d="M308.8 469.7h-63.1v-63.1h63.1v63.1zm-42.1-21h21v-21h-21v21z"/>
        <path class="st0" d="M392.9 469.7h-63.1v-63.1h63.1v63.1zm-42-21h21v-21h-21v21z"/>
        <path class="st0" d="M308.8 553.9h-63.1v-63.1h63.1v63.1zm-42.1-21.1h21v-21h-21v21z"/>
        <path class="st0" d="M392.9 553.9h-63.1v-63.1h63.1v63.1zm-42-21.1h21v-21h-21v21z"/>
        <path class="st0" d="M519.1 301.4H456v-63.1h63.1v63.1zm-42-21h21v-21h-21v21z"/>
        <path class="st0" d="M592.8 301.4h-63.1v-63.1h63.1v63.1zm-42.1-21h21v-21h-21v21z"/>
        <path class="st0" d="M519.1 385.6H456v-63.1h63.1v63.1zm-42-21.1h21v-21h-21v21z"/>
        <path class="st0" d="M592.8 385.6h-63.1v-63.1h63.1v63.1zm-42.1-21.1h21v-21h-21v21z"/>
        <path class="st0" d="M519.1 469.7H456v-63.1h63.1v63.1zm-42-21h21v-21h-21v21z"/>
        <path class="st0" d="M592.8 469.7h-63.1v-63.1h63.1v63.1zm-42.1-21h21v-21h-21v21z"/>
        <path class="st0" d="M519.1 553.9H456v-63.1h63.1v63.1zm-42-21.1h21v-21h-21v21z"/>
        <path class="st0" d="M592.8 553.9h-63.1v-63.1h63.1v63.1zm-42.1-21.1h21v-21h-21v21z"/>
    </g>
</svg>
