<svg id="Слой_1" xmlns="http://www.w3.org/2000/svg" viewBox="0 0 62 62">
    <style>
        .st0{fill:#d40041}
    </style>
    <path class="st0" d="M40.1 10.6H21C9.8 10.6.7 19.8.8 31 .8 42.1 9.9 51.2 21 51.2h19.1c11.2-.1 20.3-9.2 20.2-20.4 0-11.1-9.1-20.2-20.2-20.2zm-4.3 4.6v-2.5h1.7v2.5h-1.7zm0 4.6v-2.5h1.7v2.5h-1.7zm0 4.7V22h1.7v2.5h-1.7zM53.6 31c0 7.4-6.1 13.5-13.5 13.5H21c-3.6 0-7-1.5-9.6-4-2.6-2.6-3.9-6-3.9-9.6 0-7.4 6.1-13.5 13.5-13.5h12.7v2.5H21c-6.1 0-11 5-11 11.2 0 6 5 11 11 11h19.1c3 0 5.7-1.2 7.8-3.3s3.2-4.9 3.2-7.9c0-6-5-11-11-11h-.4v-2.5h.4c3.6 0 7 1.5 9.6 4 2.5 2.5 3.9 6 3.9 9.6zM49 31c0 4.9-4 8.9-8.9 8.9H21c-4.9 0-8.9-4.1-8.9-9s4-8.9 8.9-8.9h12.7v2.5H21c-1.7 0-3.3.7-4.5 1.9s-1.9 2.9-1.8 4.6c0 3.5 2.9 6.4 6.4 6.4h19.1c3.6 0 6.4-2.9 6.4-6.5 0-3.5-2.9-6.4-6.4-6.4h-.4V22h.4c4.8 0 8.8 4 8.8 9zm-8.9 4.2H21c-1.2 0-2.2-.5-3-1.3s-1.2-1.9-1.2-3.1c0-2.3 1.9-4.3 4.3-4.3h19.1c1.2 0 2.2.5 3 1.3s1.2 1.9 1.2 3.1c-.1 2.4-2 4.3-4.3 4.3zm-6.4-20H21c-8.7 0-15.7 7.1-15.6 15.8 0 8.6 7.1 15.6 15.6 15.6h19.1c8.7 0 15.7-7.1 15.6-15.8 0-8.6-7.1-15.6-15.6-15.6h-.4v-2.5h.4c10 .1 18.2 8.3 18.1 18.3 0 9.9-8.2 18.1-18.1 18.1H21c-4.9 0-9.4-1.9-12.9-5.4-3.4-3.5-5.3-8-5.3-12.9 0-9.9 8.2-18.1 18.1-18.1h12.7l.1 2.5z"/>
</svg>
