<svg id="Слой_1" xmlns="http://www.w3.org/2000/svg" viewBox="0 0 62 62">
    <style>
        .st0{fill:#bc072a}
    </style>
    <g id="_05-pool">
        <path class="st0" d="M12.4 43.2c2.2.1 4.4-.4 6.4-1.3 1.6-.8 3.4-1.1 5.2-1.1 1.7 0 3.5.3 5.2 1.1 2 .9 4.2 1.4 6.4 1.3 2.2.1 4.4-.4 6.4-1.3 1.6-.8 3.4-1.1 5.2-1.1 1.7-.1 3.5.3 5.2 1.1 1.8.8 3.7 1.3 5.6 1.3v-3.3c-1.5-.1-3-.4-4.4-1.1-1.4-.7-3-1.1-4.5-1.2l-.7-.1V10.2c0-1.7 1.4-3.2 3.2-3.2s3.2 1.4 3.2 3.2v1.7h3.3v-1.7c0-3.6-2.9-6.5-6.5-6.5s-6.5 2.9-6.5 6.5v8H31.4v-8c0-1.7 1.4-3.2 3.2-3.2s3.2 1.4 3.2 3.2v1.7H41v-1.7c0-3.6-2.9-6.5-6.5-6.5S28 6.6 28 10.2v27.7l-.9-.2c-1.1-.2-2.1-.3-3.2-.3-2.2 0-4.4.4-6.4 1.3-1.6.8-3.4 1.1-5.2 1.1-1.7 0-3.5-.3-5.2-1.1-1.8-.8-3.7-1.3-5.6-1.3v3.3c1.5.1 3 .4 4.4 1.1 2.1 1 4.3 1.4 6.5 1.4zm19-21.7h13.5v6.3H31.4v-6.3zm0 9.7h13.5v6.4l-.6.1c-1.3.2-2.5.6-3.6 1.1-1.5.7-3.2 1.1-4.9 1.1h-.3c-1.2 0-2.4-.1-3.6-.5l-.5-.2v-8z"/>
        <path class="st0" d="M12.4 55.2c2.2.1 4.4-.4 6.4-1.3 1.6-.8 3.4-1.1 5.2-1.1 1.8 0 3.5.3 5.2 1.1 2 .9 4.2 1.4 6.4 1.3 2.2.1 4.4-.4 6.4-1.3 1.6-.8 3.4-1.1 5.2-1.1 1.7 0 3.5.3 5.2 1.1 1.8.8 3.7 1.3 5.6 1.3v-3.3c-1.5-.1-3-.4-4.4-1.1-2-.9-4.2-1.4-6.4-1.3-2.2-.1-4.4.4-6.4 1.3-1.6.8-3.4 1.1-5.2 1.1-1.7 0-3.5-.3-5.2-1.1-2-.9-4.2-1.4-6.4-1.3-2.2-.1-4.4.4-6.4 1.3-1.6.8-3.4 1.1-5.2 1.1-1.7 0-3.5-.3-5.2-1.1-1.8-.8-3.7-1.3-5.6-1.3v3.3c1.5.1 3 .4 4.4 1.1 2 .9 4.2 1.4 6.4 1.3z"/>
    </g>
</svg>
