<svg id="Capa_1" xmlns="http://www.w3.org/2000/svg" viewBox="0 0 180 214.3">
    <style>
        .st0{fill:#bc072a}
    </style>
    <path class="st0" d="M179.8 55.2c-.1-5.8-.2-11.3-.2-16.5 0-4.1-3.4-7.5-7.5-7.5-32.1 0-56.5-9.2-76.9-29-2.9-2.8-7.5-2.8-10.5 0-20.4 19.8-44.8 29-76.8 29-4.1 0-7.5 3.4-7.5 7.5C.4 44 .3 49.5.2 55.2c-1 53.8-2.4 127.6 87.3 158.7.8.3 1.6.4 2.5.4s1.7-.1 2.5-.4c89.7-31.2 88.3-104.9 87.3-158.7zM90 198.8c-77-28-75.8-89.2-74.8-143.4.1-3.2.1-6.4.2-9.5 30-1.3 54.1-10.4 74.6-28.3 20.6 17.9 44.6 27 74.6 28.3 0 3.1.1 6.2.2 9.5 1 54.2 2.2 115.4-74.8 143.4z"/>
    <path class="st0" d="M115.8 81.1l-36.2 36.2-15.4-15.4c-2.9-2.9-7.7-2.9-10.6 0-2.9 2.9-2.9 7.7 0 10.6l20.8 20.7c1.5 1.5 3.4 2.2 5.3 2.2s3.8-.7 5.3-2.2l41.5-41.5c2.9-2.9 2.9-7.7 0-10.6-3-2.9-7.7-2.9-10.7 0z"/>
</svg>
