<?xml version="1.0" encoding="UTF-8"?><!DOCTYPE svg PUBLIC "-//W3C//DTD SVG 1.1//EN" "http://www.w3.org/Graphics/SVG/1.1/DTD/svg11.dtd"><svg xmlns="http://www.w3.org/2000/svg" xmlns:xlink="http://www.w3.org/1999/xlink"><symbol id="icon-arrow" viewBox="0 0 400 248">
    <path d="M382.7 106.8H59.1l77.2-77.2c6.8-6.8 6.8-17.7 0-24.5-6.8-6.8-17.7-6.8-24.5 0L5.1 111.8c-6.8 6.8-6.8 17.7 0 24.5l106.8 106.8c3.4 3.4 7.8 5.1 12.2 5.1s8.9-1.7 12.2-5.1c6.8-6.8 6.8-17.7 0-24.5l-77.2-77.2h323.6c9.6 0 17.3-7.8 17.3-17.3 0-9.6-7.8-17.3-17.3-17.3z"/>
</symbol><symbol id="icon-eye" viewBox="0 0 511 383">
    <path d="M361.2 227.7c15-21.8 22.6-45.9 22.6-72.4 0-7.4-.8-15.4-2.3-24l-79.9 143.3c24.6-9.4 44.5-25.1 59.6-46.9z"/>
    <path d="M372.9 30.3c.2-.4.3-1.2.3-2.6 0-3.2-1.5-5.8-4.6-7.7-.6-.4-2.4-1.5-5.6-3.3-3.1-1.8-6.1-3.6-9-5.3-2.9-1.7-6-3.5-9.4-5.3-3.4-1.8-6.4-3.3-8.8-4.4-2.5-1.1-4.2-1.7-5.1-1.7-3.4 0-6.1 1.5-8 4.6l-15.4 27.7c-17.3-3.2-34.5-4.9-51.4-4.9-51.2 0-98.4 12.9-141.6 38.8C71 92.1 34.8 127.4 5.7 172.2 1.9 178.1 0 184.6 0 191.9c0 7.2 1.9 13.8 5.7 19.7 16.7 26.1 36.6 49.4 59.5 69.9 22.9 20.6 48 37 75.2 49.4-8.4 14.3-12.6 22.6-12.6 24.8 0 3.4 1.5 6.1 4.6 8 23.2 13.3 36 20 38.3 20 3.4 0 6.1-1.5 8-4.6l14-25.4c20.2-36 50.2-89.9 90.2-161.9 40-71.9 70-125.7 90-161.5zM158.5 298.9c-49.5-22.2-90.2-57.9-122-107 28.9-44.9 65.2-78.5 108.8-100.8-11.6 19.8-17.4 41.2-17.4 64.2 0 20.4 4.7 39.7 14 58 9.3 18.3 22.3 33.4 38.8 45.4l-22.2 40.2zm107-207c-2.7 2.7-5.9 4-9.7 4-16.4 0-30.4 5.8-42 17.4-11.6 11.6-17.4 25.6-17.4 42 0 3.8-1.3 7-4 9.7-2.7 2.7-5.9 4-9.7 4-3.8 0-7-1.3-9.7-4-2.7-2.7-4-5.9-4-9.7 0-23.8 8.5-44.2 25.6-61.2 17-17 37.4-25.6 61.2-25.6 3.8 0 7 1.3 9.7 4 2.7 2.7 4 5.9 4 9.7 0 3.8-1.3 7.1-4 9.7z"/>
    <path d="M505.9 172.2c-10.9-18.1-24.6-35.6-41.3-52.5-16.6-16.9-34-31.5-52.1-43.7l-18 32c31.8 21.9 58.6 49.9 80.5 83.9-23 35.8-51.7 65-86.1 87.6-34.4 22.7-71.7 35.7-112.1 39.1l-21.1 37.7c42.3 0 82.2-9 119.8-27.1 37.6-18.1 70.7-43.5 99.2-76.2 13.3-15.4 23.7-29.2 31.1-41.4 3.8-6.5 5.7-13 5.7-19.7.1-6.7-1.8-13.3-5.6-19.7z"/>
</symbol><symbol id="icon-facebook" viewBox="0 0 512 512">
    <path d="M452 0H60C26.916 0 0 26.916 0 60v392c0 33.084 26.916 60 60 60h392c33.084 0 60-26.916 60-60V60c0-33.084-26.916-60-60-60zm20 452c0 11.028-8.972 20-20 20H338V309h61.79L410 247h-72v-43c0-16.975 13.025-30 30-30h41v-62h-41c-50.923 0-91.978 41.25-91.978 92.174V247H216v62h60.022v163H60c-11.028 0-20-8.972-20-20V60c0-11.028 8.972-20 20-20h392c11.028 0 20 8.972 20 20v392z"/>
</symbol><symbol id="icon-instagram" viewBox="0 0 512 512">
    <path d="M373.659 0H138.341C62.06 0 0 62.06 0 138.341v235.318C0 449.94 62.06 512 138.341 512h235.318C449.94 512 512 449.94 512 373.659V138.341C512 62.06 449.94 0 373.659 0zm96.977 373.659c0 53.473-43.503 96.977-96.977 96.977H138.341c-53.473 0-96.977-43.503-96.977-96.977V138.341c0-53.473 43.503-96.977 96.977-96.977h235.318c53.473 0 96.977 43.503 96.977 96.977v235.318z"/>
    <path d="M370.586 238.141c-3.64-24.547-14.839-46.795-32.386-64.342-17.547-17.546-39.795-28.746-64.341-32.385a114.73 114.73 0 0 0-33.682 0c-30.336 4.499-57.103 20.541-75.372 45.172-18.269 24.631-25.854 54.903-21.355 85.237 4.499 30.335 20.541 57.102 45.172 75.372 19.996 14.831 43.706 22.619 68.153 22.619 5.667 0 11.375-.418 17.083-1.265 30.336-4.499 57.103-20.541 75.372-45.172 18.27-24.63 25.855-54.901 21.356-85.236zm-102.795 89.491c-19.405 2.882-38.77-1.973-54.527-13.66-15.757-11.687-26.019-28.811-28.896-48.216-2.878-19.405 1.973-38.77 13.66-54.527 11.688-15.757 28.811-26.019 48.217-28.897a73.42 73.42 0 0 1 21.545.001c32.231 4.779 57.098 29.645 61.878 61.877 5.94 40.058-21.817 77.482-61.877 83.422z"/>
    <path d="M400.049 111.951a20.83 20.83 0 0 0-14.625-6.058 20.826 20.826 0 0 0-14.625 6.058 20.814 20.814 0 0 0-6.058 14.625 20.814 20.814 0 0 0 6.058 14.625 20.83 20.83 0 0 0 14.625 6.058 20.826 20.826 0 0 0 14.625-6.058 20.83 20.83 0 0 0 6.058-14.625 20.826 20.826 0 0 0-6.058-14.625z"/>
</symbol><symbol id="icon-search" viewBox="0 0 57 57">
    <path d="M55.146 51.887L41.588 37.786A22.926 22.926 0 0 0 46.984 23c0-12.682-10.318-23-23-23s-23 10.318-23 23 10.318 23 23 23c4.761 0 9.298-1.436 13.177-4.162l13.661 14.208c.571.593 1.339.92 2.162.92.779 0 1.518-.297 2.079-.837a3.004 3.004 0 0 0 .083-4.242zM23.984 6c9.374 0 17 7.626 17 17s-7.626 17-17 17-17-7.626-17-17 7.626-17 17-17z"/>
</symbol><symbol id="icon-telegram" viewBox="0 0 485 485">
    <path d="M90.563 236.875l72.585 27.09 28.094 90.351c1.797 5.786 8.871 7.922 13.567 4.082l40.46-32.98a12.062 12.062 0 0 1 14.711-.41l72.977 52.98c5.023 3.649 12.14.899 13.402-5.172l53.457-257.136c1.375-6.633-5.14-12.164-11.453-9.723L90.48 220.871c-7.351 2.836-7.289 13.242.083 16.004zm96.152 12.672l141.851-87.367c2.547-1.567 5.172 1.882 2.98 3.914L214.48 274.914a24.266 24.266 0 0 0-7.523 14.52l-3.984 29.554c-.532 3.946-6.075 4.336-7.164.516l-15.336-53.89c-1.754-6.145.804-12.712 6.242-16.067zm0 0"/>
    <path d="M0 0v485h485V0zm455 455H30V30h425zm0 0"/>
</symbol><symbol id="icon-vk" viewBox="0 0 485 485">
    <path d="M144.754 275.965c12.16 16.476 26.133 31.047 44.184 41.355 20.44 11.684 42.449 15.207 65.66 14.133 10.843-.52 14.105-3.348 14.605-14.152.336-7.403 1.192-14.785 4.836-21.438 3.582-6.523 9.016-7.758 15.285-3.699 3.121 2.05 5.75 4.617 8.239 7.363 6.109 6.668 12.023 13.575 18.351 20.024 7.957 8.101 17.395 12.875 29.234 11.902l45.875.02c7.383-.5 11.223-9.551 6.985-17.817-2.985-5.77-6.903-10.902-11.043-15.883-9.375-11.261-20.422-20.859-30.867-31.046-9.414-9.192-10.012-14.528-2.45-25.133 8.278-11.586 17.153-22.711 25.493-34.235 7.78-10.765 15.765-21.515 19.84-34.39 2.609-8.219.3-11.84-8.094-13.293-1.453-.238-2.965-.238-4.438-.238l-49.918-.063c-6.148-.098-9.531 2.59-11.703 8.04-2.945 7.366-5.969 14.73-9.476 21.815-7.918 16.122-16.778 31.704-29.196 44.88-2.746 2.902-5.793 6.585-10.367 5.074-5.71-2.09-7.402-11.52-7.305-14.704l-.043-57.62c-1.109-8.215-2.945-11.9-11.12-13.497h-51.848c-6.903 0-10.387 2.692-14.09 7.008-2.11 2.512-2.77 4.121 1.613 4.957 8.594 1.629 13.473 7.203 14.746 15.824 2.051 13.793 1.91 27.641.719 41.473-.34 4.04-1.035 8.063-2.633 11.844-2.504 5.949-6.566 7.144-11.879 3.484-4.793-3.305-8.176-7.96-11.504-12.637-12.437-17.578-22.347-36.52-30.449-56.425-2.328-5.754-6.367-9.235-12.457-9.336-14.969-.239-29.953-.274-44.941.02-8.996.16-11.684 4.538-8 12.718 16.3 36.281 34.453 71.547 58.156 103.672zm0 0"/>
    <path d="M0 0v485h485V0zm455 455H30V30h425zm0 0"/>
</symbol><symbol id="icon-youtube" viewBox="0 0 512 415">
    <path d="M347.3 176.4l-120.9-60.5c-7.2-3.6-14.3-5.4-21.3-5.4-21.4 0-36.4 16.9-36.4 41V264c0 24.2 15 41 36.4 41 7 0 14.1-1.8 21.3-5.4l120.9-60.5c14.7-7.3 23.1-18.8 23.1-31.4 0-12.5-8.4-23.9-23.1-31.3zm-13.4 35.9L213 272.8c-3.7 1.8-6.3 2.2-7.9 2.2-5.3 0-6.4-6-6.4-11V151.6c0-5 1.1-11 6.4-11 1.6 0 4.2.4 7.9 2.2l120.9 60.5c3.7 1.9 5.6 3.6 6.3 4.5-.8.9-2.6 2.7-6.3 4.5z"/>
    <path d="M456.8 0H55.2C24.7 0 0 24.7 0 55.2v305.3c0 30.4 24.7 55.2 55.2 55.2h401.7c30.4 0 55.2-24.8 55.2-55.2V55.2C512 24.7 487.3 0 456.8 0zM482 360.4c0 13.9-11.3 25.2-25.2 25.2H55.2c-13.9 0-25.2-11.3-25.2-25.2V55.2C30 41.3 41.3 30 55.2 30h401.7c13.9 0 25.2 11.3 25.2 25.2v305.2z"/>
</symbol></svg>