<svg id="Capa_1" xmlns="http://www.w3.org/2000/svg" width="440" height="480" viewBox="0 0 440 480">
    <style>
        .st0{fill:#e0e9f3}
    </style>
    <path class="st0" d="M432 104h-32c-4.4 0-8 3.6-8 8v8c0-4.4-3.6-8-8-8h-24c-4.2 0-7.7 3.3-8 7.5l-.6 8.5H336v-16c0-4.4-3.6-8-8-8h-32c-4.4 0-8 3.6-8 8v48c0 4.4 3.6 8 8 8h32c4.4 0 8-3.6 8-8v-16h14.4l-4.4 65.4c-.7 8.3-7.7 14.6-16 14.6h-50v-3.4c0-3.1-1.8-5.9-4.6-7.2-10.8-5.1-22.3-8.6-34.1-10.5-1.3-.2-2.6-.1-3.8.4-4.4-1.3-8.9-2.3-13.5-2.8v-21.8c2.4-1.2 4.7-2.6 6.9-4.1 26.9-18.8 49.1-37.7 49.1-78.3V88c0-24.3-10.1-47.6-27.8-64.2-31.2-29-78.6-31.8-113-6.6C104.5 10.9 71.3 34 65 68.7c-.7 3.7-1 7.5-1 11.2v120c0 4.4 3.6 8 8 8 30.6.1 60-11.7 82.1-32.9 1.9 1.3 3.9 2.4 5.9 3.5v21.8c-4.6.5-9.1 1.5-13.5 2.8-1.2-.4-2.5-.6-3.8-.4-11.8 1.9-23.3 5.4-34.1 10.5-2.8 1.3-4.6 4.1-4.6 7.2v.3c-30.3 34-47.3 77.7-48 123.2 0 21.9 1 47.2 7.5 64H48v-16c0-4.4-3.6-8-8-8H8c-4.4 0-8 3.6-8 8v48c0 4.4 3.6 8 8 8h32c4.4 0 8-3.6 8-8v-16h45.7c-9 17.3-13.7 36.5-13.7 56h16c0-13.8 2.8-27.4 8-40.1v.1c0 4.4 3.6 8 8 8h32c4.4 0 8-3.6 8-8v-32h100.2l4.6 5.8c15 18.8 23.2 42.2 23.2 66.2h16c0-27.7-9.5-54.6-26.7-76.2l-6.1-7.6-3.1-9.2c-7.4-22.4-6.7-46.7 2-68.6l.4-1.1c9.9-3.1 16.9-12 17.5-22.4v-.3l86.7-18.6c14.7-3.2 25.2-16.2 25.3-31.3V160c0 4.4 3.6 8 8 8h32c4.4 0 8-3.6 8-8v-48c0-4.4-3.6-8-8-8zm-112 48h-16v-32h16v32zM32 432H16v-32h16v32zm62-27.4l.6 3.4H81.3c-4.6-6.4-9.3-22.9-9.3-64 .7-35.2 11.8-69.5 32-98.4v48.6c-10.6 23.9-14.1 86.1-10 110.4zm93.2-388.5c37.9-2.6 71.3 24.9 76.2 62.6l-43.8-21.9c-1.5-.8-3.3-1-5-.7l-92.9 16.4c6.5-31.5 33.4-54.6 65.5-56.4zM80 191.7V80c0-24.8 18.9-45.5 43.6-47.8A87.901 87.901 0 0 0 104 88v8.2c0 34.3 15.9 53.1 37 69.5-16.9 15.1-38.3 24.3-61 26zm40-95.5V89l94.8-16.7L264 96.9c-.2 29.8-13.8 44.6-42.2 64.5-17.9 12.4-41.6 12.4-59.4 0-28.8-20-42.4-34.9-42.4-65.2zm32 122c5.2-1.4 10.6-2.2 16-2.2 4.4 0 8-3.6 8-8v-23.3c10.5 2.8 21.5 2.8 32 0V208c0 4.4 3.6 8 8 8 5.4 0 10.8.7 16 2.2V231l-40 8.6-40-8.6v-12.8zm-43.5 166.7c-.5-23.9 1.6-47.8 6.2-71.3 2.1 1.4 4.3 2.6 6.7 3.6 8.1 21.5 8.4 45.1 1 66.8H112c-1.2 0-2.4.3-3.5.9zM136 432h-16v-32h16v32zm16-40c0-4.4-3.6-8-8-8h-4.8c6.1-20.9 6.1-43.1 0-64h105.3c-7.5 23.4-7.4 48.7.4 72H152zm112-97.2c0 4.3-6.8 9.2-16 9.2H136c-9.2 0-16-4.9-16-9.2v-69c5.2-2.1 10.5-3.9 16-5.2v16.9c0 3.8 2.6 7 6.3 7.8l48 10.3c1.1.2 2.3.2 3.4 0l48-10.3c3.7-.8 6.3-4.1 6.3-7.8v-16.9c5.5 1.3 10.8 3.1 16 5.2v69zm99.4-34.6L280 278.1V240h50.1c16.6.1 30.5-12.7 31.9-29.3l5.5-82.7h8.5v116.6c0 7.5-5.3 14-12.6 15.6zM424 152h-16v-32h16v32z"/>
</svg>
