<svg id="Layer_3" xmlns="http://www.w3.org/2000/svg" width="496" height="496" viewBox="0 0 496 496">
    <style>
        .st0{fill:#e0e9f3}
    </style>
    <path class="st0" d="M493.6 450.3L384 340.7V176h24c4.4 0 8-3.6 8-8V8c0-4.4-3.6-8-8-8H88c-4.4 0-8 3.6-8 8v160c0 4.4 3.6 8 8 8h24v164.7L2.4 450.3C.9 451.8 0 453.8 0 456v32c0 4.4 3.6 8 8 8h480c4.4 0 8-3.6 8-8v-32c0-2.2-.9-4.2-2.4-5.7zM240 432v16H75.3l64-64h217.4l64 64H256v-16h-16zm203.3 16l-77.7-77.7c-1.5-1.5-3.5-2.3-5.7-2.3H136c-2.1 0-4.2.8-5.7 2.3L52.7 448H27.3l96-96h249.4l96 96h-25.4zM336 176v160H160V176h176zm32 160h-16V176h16v160zM96 16h304v144H96V16zm48 160v160h-16V176h16zm336 304H16v-16h464v16z"/>
    <path class="st0" d="M240 400h16v16h-16v-16z"/>
    <path class="st0" d="M248 32H120c-4.4 0-8 3.6-8 8v96c0 4.4 3.6 8 8 8h128c4.4 0 8-3.6 8-8V40c0-4.4-3.6-8-8-8zm-8 16v48H128V48h112zm-112 80v-16h112v16H128z"/>
    <path class="st0" d="M312 32h-32c-4.4 0-8 3.6-8 8v32c0 4.4 3.6 8 8 8h32c4.4 0 8-3.6 8-8V40c0-4.4-3.6-8-8-8zm-8 32h-16V48h16v16z"/>
    <path class="st0" d="M376 32h-32c-4.4 0-8 3.6-8 8v32c0 4.4 3.6 8 8 8h32c4.4 0 8-3.6 8-8V40c0-4.4-3.6-8-8-8zm-8 32h-16V48h16v16z"/>
    <path class="st0" d="M312 96h-32c-4.4 0-8 3.6-8 8v32c0 4.4 3.6 8 8 8h32c4.4 0 8-3.6 8-8v-32c0-4.4-3.6-8-8-8zm-8 32h-16v-16h16v16z"/>
    <path class="st0" d="M376 96h-32c-4.4 0-8 3.6-8 8v32c0 4.4 3.6 8 8 8h32c4.4 0 8-3.6 8-8v-32c0-4.4-3.6-8-8-8zm-8 32h-16v-16h16v16z"/>
</svg>
