<?xml version="1.0" encoding="utf-8"?>
<!-- Generator: Adobe Illustrator 22.0.1, SVG Export Plug-In . SVG Version: 6.00 Build 0)  -->
<svg version="1.1" id="Слой_1" xmlns="http://www.w3.org/2000/svg" xmlns:xlink="http://www.w3.org/1999/xlink" x="0px" y="0px"
	 width="512px" height="415px" viewBox="0 0 512 415.6" style="enable-background:new 0 0 512 415.6;" xml:space="preserve">
<path d="M347.3,176.4l-120.9-60.5c-7.2-3.6-14.3-5.4-21.3-5.4c-21.4,0-36.4,16.9-36.4,41V264c0,24.2,15,41,36.4,41
	c7,0,14.1-1.8,21.3-5.4l120.9-60.5c14.7-7.3,23.1-18.8,23.1-31.4C370.4,195.2,362,183.8,347.3,176.4z M333.9,212.3l-120.9,60.5
	c-3.7,1.8-6.3,2.2-7.9,2.2c-5.3,0-6.4-6-6.4-11V151.6c0-5,1.1-11,6.4-11c1.6,0,4.2,0.4,7.9,2.2l120.9,60.5c3.7,1.9,5.6,3.6,6.3,4.5
	C339.4,208.7,337.6,210.5,333.9,212.3z"/>
<path d="M456.8,0H55.2C24.7,0,0,24.7,0,55.2v305.3c0,30.4,24.7,55.2,55.2,55.2h401.7c30.4,0,55.2-24.8,55.2-55.2V55.2
	C512,24.7,487.3,0,456.8,0z M482,360.4c0,13.9-11.3,25.2-25.2,25.2H55.2c-13.9,0-25.2-11.3-25.2-25.2V55.2C30,41.3,41.3,30,55.2,30
	h401.7c13.9,0,25.2,11.3,25.2,25.2V360.4z"/>
</svg>
